<svg version="1.1" id="Layer_1" xmlns="http://www.w3.org/2000/svg" xmlns:xlink="http://www.w3.org/1999/xlink" x="0px" y="0px"
	 width="100%" viewBox="0 0 262 144" enable-background="new 0 0 262 144" xml:space="preserve">
<path fill="#F8F7F6" opacity="0" stroke="none"
	d="
M188.000000,145.000000 
	C125.333351,145.000000 63.166695,145.000000 1.000033,145.000000 
	C1.000022,97.000023 1.000022,49.000053 1.000011,1.000059 
	C88.333282,1.000039 175.666565,1.000039 262.999878,1.000020 
	C262.999939,48.999939 262.999939,96.999878 262.999969,144.999908 
	C238.166672,145.000000 213.333328,145.000000 188.000000,145.000000 
M147.773849,76.619621 
	C153.343475,61.306454 158.927826,45.998623 164.474289,30.677071 
	C166.291946,25.655979 165.027481,22.534414 160.252106,21.496788 
	C145.386353,18.266653 131.174911,19.830877 117.341705,28.128174 
	C96.784218,40.254845 85.305336,64.257416 89.547890,87.694496 
	C93.517982,109.626389 105.704041,125.179810 127.608147,133.409378 
	C141.666306,138.695175 155.596466,138.119522 169.349304,132.339890 
	C174.219208,130.293304 175.289886,127.444923 172.656204,122.838638 
	C164.256058,108.146881 155.675751,93.558128 147.173996,78.383255 
	C147.121262,78.208908 147.068542,78.034569 147.285736,77.772438 
	C147.426041,77.594055 147.419693,77.421021 147.773849,76.619621 
M221.877960,23.113939 
	C212.042999,21.869864 202.237518,20.211948 192.364029,19.508703 
	C184.011520,18.913790 182.349426,20.972597 182.347534,29.161503 
	C182.340012,61.756939 182.328003,94.352409 182.382629,126.947754 
	C182.386169,129.060379 182.936691,131.172104 183.421341,133.931320 
	C185.561722,134.908142 187.689346,136.679153 189.844879,136.713837 
	C196.480209,136.820541 203.163254,136.608734 209.761414,135.901688 
	C233.109818,133.399673 252.780380,116.748184 258.755463,94.094650 
	C263.917877,74.522186 260.710815,56.513546 246.969757,40.248611 
	C240.218506,32.601013 232.423706,26.485922 221.877960,23.113939 
M42.250671,99.406036 
	C51.439510,111.017456 60.511185,122.725800 69.947517,134.132477 
	C71.313034,135.783112 74.534111,136.822647 76.694481,136.549118 
	C78.014084,136.382050 79.903107,133.171585 79.913246,131.319092 
	C80.105453,96.201622 80.060600,61.082825 80.048782,25.964306 
	C80.047417,21.905968 78.119270,19.898478 73.888672,19.954338 
	C65.401802,20.066397 56.912331,19.965788 48.424042,19.990309 
	C42.431713,20.007618 41.034142,21.344532 40.999828,27.275017 
	C40.944935,36.761528 40.980881,46.248566 40.314175,55.400208 
	C39.477001,54.604088 38.546341,53.885021 37.816944,53.000069 
	C29.449265,42.847775 21.239985,32.559757 12.638226,22.610750 
	C11.242098,20.995955 7.680488,19.678486 5.957327,20.355440 
	C4.162354,21.060604 2.700025,24.232721 2.314699,26.531149 
	C1.716969,30.096544 2.154597,33.835640 2.154579,37.501099 
	C2.154426,68.324257 2.074467,99.148048 2.316313,129.969315 
	C2.334420,132.277039 4.199639,135.859985 6.030406,136.502808 
	C7.879295,137.152008 11.295500,135.445496 13.062485,133.761169 
	C16.288034,130.686539 18.765959,126.836029 21.622168,123.363792 
	C28.375387,115.154045 35.167576,106.976357 42.250671,99.406036 
z"/>
<path fill="#F6B10D" opacity="1.000000" stroke="none" 
	d="
M147.015839,77.860237 
	C147.068542,78.034569 147.121262,78.208908 146.874878,78.872452 
	C140.049210,97.240738 133.522675,115.119843 126.996140,132.998947 
	C105.704041,125.179810 93.517982,109.626389 89.547890,87.694496 
	C85.305336,64.257416 96.784218,40.254845 117.830505,28.374218 
	C119.041344,29.729536 119.811920,30.810495 120.478058,31.952377 
	C129.321396,47.111473 138.150085,62.279106 146.990540,77.548538 
	C146.998672,77.652466 147.015839,77.860237 147.015839,77.860237 
z"/>
<path fill="#E64F48" opacity="1.000000" stroke="none" 
	d="
M40.978428,55.735382 
	C40.980881,46.248566 40.944935,36.761528 40.999828,27.275017 
	C41.034142,21.344532 42.431713,20.007618 48.424042,19.990309 
	C56.912331,19.965788 65.401802,20.066397 73.888672,19.954338 
	C78.119270,19.898478 80.047417,21.905968 80.048782,25.964306 
	C80.060600,61.082825 80.105453,96.201622 79.913246,131.319092 
	C79.903107,133.171585 78.014084,136.382050 76.694481,136.549118 
	C74.534111,136.822647 71.313034,135.783112 69.947517,134.132477 
	C60.511185,122.725800 51.439510,111.017456 42.074635,98.810471 
	C41.910576,97.832092 41.922554,97.449280 42.243580,96.911469 
	C46.817299,91.505783 51.360317,86.445869 55.171474,80.884422 
	C56.268253,79.283943 56.204273,75.517982 55.040024,73.983231 
	C50.765770,68.348793 45.804829,63.235268 41.069527,57.648582 
	C41.017281,56.826115 40.997856,56.280750 40.978428,55.735382 
z"/>
<path fill="#4990CC" opacity="1.000000" stroke="none" 
	d="
M247.160217,40.890274 
	C260.710815,56.513546 263.917877,74.522186 258.755463,94.094650 
	C252.780380,116.748184 233.109818,133.399673 209.761414,135.901688 
	C203.163254,136.608734 196.480209,136.820541 189.844879,136.713837 
	C187.689346,136.679153 185.561722,134.908142 183.541046,133.517410 
	C183.660767,133.103500 184.112396,132.995224 184.342728,132.849289 
	C184.676407,132.361450 184.779755,132.019562 184.872742,131.514481 
	C184.862366,131.351303 185.005310,131.057175 185.355301,131.009293 
	C186.595367,130.045197 187.645615,129.237488 188.350937,128.196136 
	C196.050674,116.828079 203.715454,105.436203 211.350662,94.024643 
	C216.972733,85.621933 222.488419,77.147804 228.139847,68.765045 
	C234.427734,59.438240 240.815781,50.178951 247.160217,40.890274 
z"/>
<path fill="#A41C5E" opacity="1.000000" stroke="none" 
	d="
M41.934528,97.066475 
	C41.922554,97.449280 41.910576,97.832092 41.921303,98.500305 
	C35.167576,106.976357 28.375387,115.154045 21.622168,123.363792 
	C18.765959,126.836029 16.288034,130.686539 13.062485,133.761169 
	C11.295500,135.445496 7.879295,137.152008 6.030406,136.502808 
	C4.199639,135.859985 2.334420,132.277039 2.316313,129.969315 
	C2.074467,99.148048 2.154426,68.324257 2.154579,37.501099 
	C2.154597,33.835640 1.716969,30.096544 2.314699,26.531149 
	C2.700025,24.232721 4.162354,21.060604 5.957327,20.355440 
	C7.680488,19.678486 11.242098,20.995955 12.638226,22.610750 
	C21.239985,32.559757 29.449265,42.847775 37.816944,53.000069 
	C38.546341,53.885021 39.477001,54.604088 40.646301,55.567795 
	C40.997856,56.280750 41.017281,56.826115 41.031403,58.123848 
	C41.015968,70.029404 40.968853,81.182823 41.037651,92.335526 
	C41.047390,93.914291 41.621590,95.489578 41.934528,97.066475 
z"/>
<path fill="#96C227" opacity="1.000000" stroke="none" 
	d="
M185.005310,131.057175 
	C185.005310,131.057175 184.862366,131.351303 184.661545,131.681808 
	C184.344620,132.339951 184.228516,132.667587 184.112396,132.995224 
	C184.112396,132.995224 183.660767,133.103500 183.446762,133.193878 
	C182.936691,131.172104 182.386169,129.060379 182.382629,126.947754 
	C182.328003,94.352409 182.340012,61.756939 182.347534,29.161503 
	C182.349426,20.972597 184.011520,18.913790 192.364029,19.508703 
	C202.237518,20.211948 212.042999,21.869864 222.015900,23.734112 
	C213.924088,47.682156 205.646362,70.993256 197.484238,94.344765 
	C193.219666,106.545563 189.158401,118.817413 185.005310,131.057175 
z"/>
<path fill="#478BA1" opacity="1.000000" stroke="none" 
	d="
M185.355301,131.009293 
	C189.158401,118.817413 193.219666,106.545563 197.484238,94.344765 
	C205.646362,70.993256 213.924088,47.682156 222.306274,23.956076 
	C232.423706,26.485922 240.218506,32.601013 247.064987,40.569443 
	C240.815781,50.178951 234.427734,59.438240 228.139847,68.765045 
	C222.488419,77.147804 216.972733,85.621933 211.350662,94.024643 
	C203.715454,105.436203 196.050674,116.828079 188.350937,128.196136 
	C187.645615,129.237488 186.595367,130.045197 185.355301,131.009293 
z"/>
<path fill="#F49E1D" opacity="1.000000" stroke="none" 
	d="
M127.302139,133.204163 
	C133.522675,115.119843 140.049210,97.240738 146.870392,79.145615 
	C155.675751,93.558128 164.256058,108.146881 172.656204,122.838638 
	C175.289886,127.444923 174.219208,130.293304 169.349304,132.339890 
	C155.596466,138.119522 141.666306,138.695175 127.302139,133.204163 
z"/>
<path fill="#F8EA1F" opacity="1.000000" stroke="none" 
	d="
M146.982422,77.444618 
	C138.150085,62.279106 129.321396,47.111473 120.478058,31.952377 
	C119.811920,30.810495 119.041344,29.729536 118.173004,28.314056 
	C131.174911,19.830877 145.386353,18.266653 160.252106,21.496788 
	C165.027481,22.534414 166.291946,25.655979 164.474289,30.677071 
	C158.927826,45.998623 153.343475,61.306454 147.439697,76.967300 
	C147.105545,77.314987 146.982422,77.444618 146.982422,77.444618 
z"/>
<path fill="#F49E1D" opacity="1.000000" stroke="none" 
	d="
M146.990540,77.548538 
	C146.982422,77.444618 147.105545,77.314987 147.186127,77.284157 
	C147.419693,77.421021 147.426041,77.594055 147.150787,77.816338 
	C147.015839,77.860237 146.998672,77.652466 146.990540,77.548538 
z"/>
<path fill="#D02238" opacity="1.000000" stroke="none" 
	d="
M42.243580,96.911469 
	C41.621590,95.489578 41.047390,93.914291 41.037651,92.335526 
	C40.968853,81.182823 41.015968,70.029404 41.064217,58.400948 
	C45.804829,63.235268 50.765770,68.348793 55.040024,73.983231 
	C56.204273,75.517982 56.268253,79.283943 55.171474,80.884422 
	C51.360317,86.445869 46.817299,91.505783 42.243580,96.911469 
z"/>
<path fill="#478BA1" opacity="1.000000" stroke="none" 
	d="
M184.342728,132.849289 
	C184.228516,132.667587 184.344620,132.339951 184.671921,131.844986 
	C184.779755,132.019562 184.676407,132.361450 184.342728,132.849289 
z"/>
</svg>